<svg aria-hidden="true" style="width:0;height:0;position:absolute;overflow:hidden" xmlns="http://www.w3.org/2000/svg"><defs><symbol id="icon-close-button" viewBox="0 0 23 32"><path d="M21.905 15.437v.06c0 5.831-4.727 10.558-10.558 10.558S.789 21.328.789 15.497v-.063.003-.06c0-5.831 4.727-10.558 10.558-10.558s10.558 4.727 10.558 10.558v.063-.003z"/><path fill="none" stroke="#fff" style="stroke:var(--color1,#fff)" stroke-linecap="round" stroke-width="4.071" d="m6.376 10.466 9.945 9.945M16.321 10.466l-9.945 9.945"/></symbol><symbol id="icon-user-avatar" viewBox="0 0 32 32"><path d="M16 8a5 5 0 1 0 5 5 5 5 0 0 0-5-5zm0 8a3 3 0 1 1 3-3 3.004 3.004 0 0 1-3 3z"/><path d="M16 2C8.268 2 2 8.268 2 16s6.268 14 14 14 14-6.268 14-14c-.009-7.728-6.272-13.991-13.999-14H16zm-6 24.377V25a3.004 3.004 0 0 1 3-3h6a3.004 3.004 0 0 1 3 3v1.377C20.281 27.397 18.211 28 16 28s-4.281-.603-6.055-1.654l.055.03zm13.992-1.451A5.003 5.003 0 0 0 19 20h-6a5 5 0 0 0-4.992 4.922v.004A11.978 11.978 0 0 1 4 15.975c0-6.627 5.373-12 12-12s12 5.373 12 12a11.97 11.97 0 0 1-3.996 8.941l-.011.01z"/></symbol></defs></svg>